<svg width="164" height="45" viewBox="0 0 164 45" fill="none" xmlns="http://www.w3.org/2000/svg">
<path d="M30.5846 2.37201V9.12212H19.4738V44.0674H11.1108V9.12212H0V2.37201H30.5846Z" fill="#4B4B4B"/>
<path d="M55.324 10.496C57.8329 10.496 60.063 11.0536 62.0144 12.1686C63.9657 13.2439 65.479 14.8567 66.5543 17.0072C67.6693 19.1179 68.2269 21.6666 68.2269 24.6534V44.0674H59.8639V25.7883C59.8639 23.16 59.2068 21.1489 57.8926 19.7551C56.5784 18.3214 54.7864 17.6046 52.5164 17.6046C50.2067 17.6046 48.3748 18.3214 47.0208 19.7551C45.7066 21.1489 45.0495 23.16 45.0495 25.7883V44.0674H36.6865V2.37201H45.0495V15.0957C46.1247 13.662 47.5584 12.547 49.3504 11.7505C51.1425 10.9142 53.1337 10.496 55.324 10.496Z" fill="#4B4B4B"/>
<path d="M106.943 26.8039C106.943 27.9986 106.864 29.0738 106.705 30.0296H82.5116C82.7107 32.419 83.547 34.2907 85.0205 35.6447C86.494 36.9987 88.306 37.6757 90.4564 37.6757C93.5627 37.6757 95.7729 36.3416 97.0871 33.6734H106.107C105.151 36.8593 103.319 39.4877 100.611 41.5585C97.9035 43.5895 94.5782 44.6051 90.6357 44.6051C87.4498 44.6051 84.5824 43.9081 82.0337 42.5143C79.5248 41.0807 77.5536 39.0696 76.1199 36.481C74.7261 33.8925 74.0292 30.9057 74.0292 27.5207C74.0292 24.0958 74.7261 21.0891 76.1199 18.5006C77.5137 15.9121 79.4651 13.9209 81.974 12.5271C84.4829 11.1332 87.3701 10.4363 90.6357 10.4363C93.7817 10.4363 96.5893 11.1133 99.0584 12.4673C101.567 13.8213 103.499 15.7528 104.853 18.2617C106.247 20.7307 106.943 23.5781 106.943 26.8039ZM98.2818 24.4144C98.242 22.2639 97.4654 20.5515 95.9521 19.2772C94.4388 17.963 92.587 17.3059 90.3967 17.3059C88.3259 17.3059 86.5736 17.9431 85.14 19.2174C83.7461 20.452 82.8899 22.1843 82.5713 24.4144H98.2818ZM95.0363 6.80985L85.14 8.42174V2.44818L95.0363 0V6.80985Z" fill="#4B4B4B"/>
<path fill-rule="evenodd" clip-rule="evenodd" d="M127.49 44.9407C124.305 44.9407 121.437 44.2438 118.888 42.85C116.34 41.4163 114.329 39.4052 112.855 36.8167C111.422 34.2281 110.705 31.2414 110.705 27.8564C110.705 24.4713 111.441 21.4846 112.915 18.896C114.428 16.3075 116.479 14.3163 119.068 12.9225C121.656 11.4888 124.543 10.772 127.729 10.772H147.045C150.231 10.772 153.098 11.4689 155.647 12.8627C158.196 14.2964 160.207 16.3075 161.68 18.896C163.114 21.4846 163.831 24.4713 163.831 27.8563C163.831 31.2414 163.094 34.2281 161.62 36.8167C160.107 39.4052 158.056 41.3964 155.468 42.7902C152.879 44.2239 149.992 44.9407 146.806 44.9407H127.49ZM127.61 18.0596C125.22 18.0596 123.209 18.9158 121.577 20.6282C119.984 22.3008 119.187 24.7102 119.187 27.8563C119.187 31.0023 119.964 33.4316 121.517 35.144C123.11 36.8166 125.101 37.6529 127.49 37.6529L127.925 37.6529C130.315 37.6529 132.326 36.7967 133.959 35.0843C135.552 33.4117 136.348 31.0023 136.348 27.8563C136.348 24.7102 135.572 22.2809 134.019 20.5685C132.426 18.8959 130.434 18.0596 128.045 18.0596H127.61Z" fill="#4B4B4B"/>
</svg>
