<svg width="228" height="29" viewBox="0 0 228 29" fill="none" xmlns="http://www.w3.org/2000/svg">
<rect width="228" height="29" rx="4" fill="#4F97FE"/>
<path d="M11.7422 20L14.9531 10.3672H16.3984L19.6094 20H18.6172L17.8984 17.7734H13.4531L12.7188 20H11.7422ZM13.7422 16.8828H17.6094L15.7734 11.3125H15.5625L13.7422 16.8828ZM21.2734 17.9688V12.5312C21.2734 12.2344 21.3438 11.9766 21.4844 11.7578C21.526 11.6953 21.5911 11.6094 21.6797 11.5C21.7734 11.3854 21.8724 11.2734 21.9766 11.1641C22.0859 11.0495 22.1927 10.9453 22.2969 10.8516C22.4062 10.7526 22.4974 10.6823 22.5703 10.6406C22.6901 10.5677 22.8229 10.5078 22.9688 10.4609C23.1198 10.4089 23.2604 10.3828 23.3906 10.3828H25.5156C25.6458 10.3828 25.7839 10.4089 25.9297 10.4609C26.0807 10.5078 26.2161 10.5677 26.3359 10.6406C26.5078 10.7448 26.6849 10.901 26.8672 11.1094C27.0547 11.3177 27.2083 11.4974 27.3281 11.6484C27.3802 11.7318 27.4375 11.8281 27.5 11.9375C27.5625 12.0417 27.6224 12.1536 27.6797 12.2734L26.7656 12.5469C26.7448 12.4844 26.7188 12.4297 26.6875 12.3828C26.6771 12.362 26.6667 12.3464 26.6562 12.3359C26.5521 12.1432 26.3984 11.9479 26.1953 11.75C25.9974 11.5521 25.8307 11.4167 25.6953 11.3438C25.6536 11.3125 25.5781 11.2969 25.4688 11.2969H23.4688C23.3854 11.2969 23.3151 11.3125 23.2578 11.3438C23.1953 11.375 23.1172 11.4297 23.0234 11.5078C22.9349 11.5807 22.8411 11.6641 22.7422 11.7578C22.6484 11.8464 22.5599 11.9427 22.4766 12.0469C22.3932 12.1458 22.3229 12.2422 22.2656 12.3359C22.2552 12.3464 22.2474 12.3828 22.2422 12.4453C22.237 12.5026 22.2318 12.5651 22.2266 12.6328C22.2214 12.7005 22.2188 12.7656 22.2188 12.8281C22.2188 12.8854 22.2188 12.9245 22.2188 12.9453V17.9375C22.2188 18.0104 22.2344 18.0781 22.2656 18.1406C22.3177 18.2344 22.3854 18.3333 22.4688 18.4375C22.5573 18.5417 22.6484 18.6406 22.7422 18.7344C22.8411 18.8229 22.9349 18.9036 23.0234 18.9766C23.1172 19.0495 23.1953 19.1016 23.2578 19.1328C23.3099 19.1641 23.3802 19.1823 23.4688 19.1875H25.4688C25.5729 19.1875 25.6484 19.1693 25.6953 19.1328C25.8359 19.0599 26 18.9245 26.1875 18.7266C26.3802 18.5286 26.5365 18.3333 26.6562 18.1406C26.6667 18.1302 26.6771 18.1146 26.6875 18.0938C26.7188 18.0521 26.7448 18.0052 26.7656 17.9531L27.6797 18.2109C27.6276 18.3307 27.5677 18.4427 27.5 18.5469C27.4375 18.651 27.3802 18.7448 27.3281 18.8281C27.2083 18.9792 27.0547 19.1589 26.8672 19.3672C26.6797 19.5755 26.5026 19.7344 26.3359 19.8438C26.2161 19.9167 26.0807 19.9766 25.9297 20.0234C25.7839 20.0703 25.6458 20.0938 25.5156 20.0938H23.4062C23.276 20.0938 23.1328 20.0703 22.9766 20.0234C22.8255 19.9766 22.6901 19.9167 22.5703 19.8438C22.4974 19.8021 22.4062 19.7318 22.2969 19.6328C22.1927 19.5339 22.0859 19.4297 21.9766 19.3203C21.8724 19.2057 21.7734 19.0964 21.6797 18.9922C21.5911 18.8828 21.526 18.7969 21.4844 18.7344C21.3438 18.5208 21.2734 18.2656 21.2734 17.9688ZM29.7109 17.9688V12.5312C29.7109 12.2344 29.7812 11.9766 29.9219 11.7578C29.9635 11.6953 30.0286 11.6094 30.1172 11.5C30.2109 11.3854 30.3099 11.2734 30.4141 11.1641C30.5234 11.0495 30.6302 10.9453 30.7344 10.8516C30.8438 10.7526 30.9349 10.6823 31.0078 10.6406C31.1276 10.5677 31.2604 10.5078 31.4062 10.4609C31.5573 10.4089 31.6979 10.3828 31.8281 10.3828H33.9531C34.0833 10.3828 34.2214 10.4089 34.3672 10.4609C34.5182 10.5078 34.6536 10.5677 34.7734 10.6406C34.9453 10.7448 35.1224 10.901 35.3047 11.1094C35.4922 11.3177 35.6458 11.4974 35.7656 11.6484C35.8177 11.7318 35.875 11.8281 35.9375 11.9375C36 12.0417 36.0599 12.1536 36.1172 12.2734L35.2031 12.5469C35.1823 12.4844 35.1562 12.4297 35.125 12.3828C35.1146 12.362 35.1042 12.3464 35.0938 12.3359C34.9896 12.1432 34.8359 11.9479 34.6328 11.75C34.4349 11.5521 34.2682 11.4167 34.1328 11.3438C34.0911 11.3125 34.0156 11.2969 33.9062 11.2969H31.9062C31.8229 11.2969 31.7526 11.3125 31.6953 11.3438C31.6328 11.375 31.5547 11.4297 31.4609 11.5078C31.3724 11.5807 31.2786 11.6641 31.1797 11.7578C31.0859 11.8464 30.9974 11.9427 30.9141 12.0469C30.8307 12.1458 30.7604 12.2422 30.7031 12.3359C30.6927 12.3464 30.6849 12.3828 30.6797 12.4453C30.6745 12.5026 30.6693 12.5651 30.6641 12.6328C30.6589 12.7005 30.6562 12.7656 30.6562 12.8281C30.6562 12.8854 30.6562 12.9245 30.6562 12.9453V17.9375C30.6562 18.0104 30.6719 18.0781 30.7031 18.1406C30.7552 18.2344 30.8229 18.3333 30.9062 18.4375C30.9948 18.5417 31.0859 18.6406 31.1797 18.7344C31.2786 18.8229 31.3724 18.9036 31.4609 18.9766C31.5547 19.0495 31.6328 19.1016 31.6953 19.1328C31.7474 19.1641 31.8177 19.1823 31.9062 19.1875H33.9062C34.0104 19.1875 34.0859 19.1693 34.1328 19.1328C34.2734 19.0599 34.4375 18.9245 34.625 18.7266C34.8177 18.5286 34.974 18.3333 35.0938 18.1406C35.1042 18.1302 35.1146 18.1146 35.125 18.0938C35.1562 18.0521 35.1823 18.0052 35.2031 17.9531L36.1172 18.2109C36.0651 18.3307 36.0052 18.4427 35.9375 18.5469C35.875 18.651 35.8177 18.7448 35.7656 18.8281C35.6458 18.9792 35.4922 19.1589 35.3047 19.3672C35.1172 19.5755 34.9401 19.7344 34.7734 19.8438C34.6536 19.9167 34.5182 19.9766 34.3672 20.0234C34.2214 20.0703 34.0833 20.0938 33.9531 20.0938H31.8438C31.7135 20.0938 31.5703 20.0703 31.4141 20.0234C31.263 19.9766 31.1276 19.9167 31.0078 19.8438C30.9349 19.8021 30.8438 19.7318 30.7344 19.6328C30.6302 19.5339 30.5234 19.4297 30.4141 19.3203C30.3099 19.2057 30.2109 19.0964 30.1172 18.9922C30.0286 18.8828 29.9635 18.7969 29.9219 18.7344C29.7812 18.5208 29.7109 18.2656 29.7109 17.9688ZM38.1484 20V10.3984H43.6562V11.3125H39.0781V14.75H43.6562V15.6641H39.0781V19.0859H43.6562V20H38.1484ZM45.8125 18.2109L46.7109 17.9531C46.7422 18.0156 46.7682 18.0625 46.7891 18.0938C46.7995 18.1146 46.8125 18.1302 46.8281 18.1406C46.9479 18.3333 47.1042 18.5286 47.2969 18.7266C47.4948 18.9245 47.6615 19.0599 47.7969 19.1328C47.849 19.1641 47.9245 19.1823 48.0234 19.1875H50.5703C50.6536 19.1875 50.7161 19.1693 50.7578 19.1328C50.8203 19.1016 50.8958 19.0495 50.9844 18.9766C51.0781 18.9036 51.1719 18.8229 51.2656 18.7344C51.3646 18.6406 51.4557 18.5443 51.5391 18.4453C51.6276 18.3411 51.6979 18.2396 51.75 18.1406C51.7812 18.0781 51.7969 18.0104 51.7969 17.9375V16.9609C51.7969 16.7995 51.7526 16.6458 51.6641 16.5C51.5755 16.349 51.4557 16.2526 51.3047 16.2109L46.8906 15.0078C46.5833 14.9245 46.3411 14.7396 46.1641 14.4531C45.987 14.1615 45.8984 13.8464 45.8984 13.5078V12.5625C45.8984 12.4219 45.9115 12.2865 45.9375 12.1562C45.9635 12.0208 46.013 11.8932 46.0859 11.7734C46.1276 11.7109 46.1953 11.625 46.2891 11.5156C46.388 11.401 46.4896 11.2891 46.5938 11.1797C46.7031 11.0651 46.8099 10.9609 46.9141 10.8672C47.0234 10.7682 47.1172 10.6979 47.1953 10.6562C47.3151 10.5833 47.4479 10.5234 47.5938 10.4766C47.7396 10.4245 47.8776 10.3984 48.0078 10.3984H50.4219C50.5521 10.3984 50.6901 10.4245 50.8359 10.4766C50.987 10.5234 51.1224 10.5833 51.2422 10.6562C51.4141 10.7604 51.5911 10.9167 51.7734 11.125C51.9609 11.3333 52.1146 11.513 52.2344 11.6641C52.2865 11.7474 52.3438 11.8438 52.4062 11.9531C52.474 12.0573 52.5339 12.1693 52.5859 12.2891L51.6719 12.5625C51.651 12.5 51.625 12.4453 51.5938 12.3984C51.5833 12.3776 51.5729 12.362 51.5625 12.3516C51.4583 12.1589 51.3021 11.9635 51.0938 11.7656C50.8906 11.5677 50.7214 11.4323 50.5859 11.3594C50.5443 11.3281 50.474 11.3125 50.375 11.3125H48.0859C48.0026 11.3125 47.9349 11.3281 47.8828 11.3594C47.8203 11.3906 47.7422 11.4453 47.6484 11.5234C47.5599 11.5964 47.4661 11.6797 47.3672 11.7734C47.2734 11.862 47.1823 11.9583 47.0938 12.0625C47.0104 12.1615 46.9427 12.2578 46.8906 12.3516C46.849 12.4349 46.8281 12.5052 46.8281 12.5625V13.4375C46.8281 13.599 46.8724 13.75 46.9609 13.8906C47.0495 14.026 47.1693 14.1146 47.3203 14.1562L51.7188 15.375C52.026 15.4583 52.2734 15.6432 52.4609 15.9297C52.6484 16.2109 52.7422 16.5234 52.7422 16.8672V17.9531C52.7422 18.0938 52.7292 18.2318 52.7031 18.3672C52.6771 18.4974 52.6276 18.6198 52.5547 18.7344C52.513 18.7969 52.4427 18.8828 52.3438 18.9922C52.25 19.0964 52.1484 19.2057 52.0391 19.3203C51.9349 19.4297 51.8281 19.5339 51.7188 19.6328C51.6146 19.7266 51.5234 19.7969 51.4453 19.8438C51.3255 19.9167 51.1927 19.9766 51.0469 20.0234C50.901 20.0703 50.763 20.0938 50.6328 20.0938H47.9766C47.8464 20.0938 47.7031 20.0703 47.5469 20.0234C47.3958 19.9766 47.2604 19.9167 47.1406 19.8438C46.9688 19.7396 46.7891 19.5833 46.6016 19.375C46.4193 19.1615 46.2682 18.9792 46.1484 18.8281C46.0286 18.6562 45.9167 18.4505 45.8125 18.2109ZM54.5781 18.2109L55.4766 17.9531C55.5078 18.0156 55.5339 18.0625 55.5547 18.0938C55.5651 18.1146 55.5781 18.1302 55.5938 18.1406C55.7135 18.3333 55.8698 18.5286 56.0625 18.7266C56.2604 18.9245 56.4271 19.0599 56.5625 19.1328C56.6146 19.1641 56.6901 19.1823 56.7891 19.1875H59.3359C59.4193 19.1875 59.4818 19.1693 59.5234 19.1328C59.5859 19.1016 59.6615 19.0495 59.75 18.9766C59.8438 18.9036 59.9375 18.8229 60.0312 18.7344C60.1302 18.6406 60.2214 18.5443 60.3047 18.4453C60.3932 18.3411 60.4635 18.2396 60.5156 18.1406C60.5469 18.0781 60.5625 18.0104 60.5625 17.9375V16.9609C60.5625 16.7995 60.5182 16.6458 60.4297 16.5C60.3411 16.349 60.2214 16.2526 60.0703 16.2109L55.6562 15.0078C55.349 14.9245 55.1068 14.7396 54.9297 14.4531C54.7526 14.1615 54.6641 13.8464 54.6641 13.5078V12.5625C54.6641 12.4219 54.6771 12.2865 54.7031 12.1562C54.7292 12.0208 54.7786 11.8932 54.8516 11.7734C54.8932 11.7109 54.9609 11.625 55.0547 11.5156C55.1536 11.401 55.2552 11.2891 55.3594 11.1797C55.4688 11.0651 55.5755 10.9609 55.6797 10.8672C55.7891 10.7682 55.8828 10.6979 55.9609 10.6562C56.0807 10.5833 56.2135 10.5234 56.3594 10.4766C56.5052 10.4245 56.6432 10.3984 56.7734 10.3984H59.1875C59.3177 10.3984 59.4557 10.4245 59.6016 10.4766C59.7526 10.5234 59.888 10.5833 60.0078 10.6562C60.1797 10.7604 60.3568 10.9167 60.5391 11.125C60.7266 11.3333 60.8802 11.513 61 11.6641C61.0521 11.7474 61.1094 11.8438 61.1719 11.9531C61.2396 12.0573 61.2995 12.1693 61.3516 12.2891L60.4375 12.5625C60.4167 12.5 60.3906 12.4453 60.3594 12.3984C60.349 12.3776 60.3385 12.362 60.3281 12.3516C60.224 12.1589 60.0677 11.9635 59.8594 11.7656C59.6562 11.5677 59.487 11.4323 59.3516 11.3594C59.3099 11.3281 59.2396 11.3125 59.1406 11.3125H56.8516C56.7682 11.3125 56.7005 11.3281 56.6484 11.3594C56.5859 11.3906 56.5078 11.4453 56.4141 11.5234C56.3255 11.5964 56.2318 11.6797 56.1328 11.7734C56.0391 11.862 55.9479 11.9583 55.8594 12.0625C55.776 12.1615 55.7083 12.2578 55.6562 12.3516C55.6146 12.4349 55.5938 12.5052 55.5938 12.5625V13.4375C55.5938 13.599 55.638 13.75 55.7266 13.8906C55.8151 14.026 55.9349 14.1146 56.0859 14.1562L60.4844 15.375C60.7917 15.4583 61.0391 15.6432 61.2266 15.9297C61.4141 16.2109 61.5078 16.5234 61.5078 16.8672V17.9531C61.5078 18.0938 61.4948 18.2318 61.4688 18.3672C61.4427 18.4974 61.3932 18.6198 61.3203 18.7344C61.2786 18.7969 61.2083 18.8828 61.1094 18.9922C61.0156 19.0964 60.9141 19.2057 60.8047 19.3203C60.7005 19.4297 60.5938 19.5339 60.4844 19.6328C60.3802 19.7266 60.2891 19.7969 60.2109 19.8438C60.0911 19.9167 59.9583 19.9766 59.8125 20.0234C59.6667 20.0703 59.5286 20.0938 59.3984 20.0938H56.7422C56.612 20.0938 56.4688 20.0703 56.3125 20.0234C56.1615 19.9766 56.026 19.9167 55.9062 19.8438C55.7344 19.7396 55.5547 19.5833 55.3672 19.375C55.1849 19.1615 55.0339 18.9792 54.9141 18.8281C54.7943 18.6562 54.6823 18.4505 54.5781 18.2109ZM67.9609 20V10.3984H72.2812C72.6458 10.3984 72.9609 10.5 73.2266 10.7031C73.2786 10.7448 73.3438 10.8047 73.4219 10.8828C73.5052 10.9557 73.5859 11.0365 73.6641 11.125C73.7474 11.2083 73.8229 11.2891 73.8906 11.3672C73.9583 11.4453 74.0104 11.5078 74.0469 11.5547C74.2083 11.7891 74.2865 12.0651 74.2812 12.3828V13.7891C74.2812 14.0964 74.2031 14.375 74.0469 14.625C74.0156 14.6667 73.9635 14.7292 73.8906 14.8125C73.8229 14.8906 73.7474 14.9714 73.6641 15.0547C73.5859 15.1328 73.5052 15.2083 73.4219 15.2812C73.3438 15.3542 73.2786 15.4115 73.2266 15.4531C72.9609 15.6562 72.6458 15.7578 72.2812 15.7578H68.8906V20H67.9609ZM68.8906 14.8516H72.2656C72.3698 14.8516 72.4609 14.8281 72.5391 14.7812C72.6693 14.7083 72.8073 14.6016 72.9531 14.4609C73.1042 14.3151 73.2161 14.1719 73.2891 14.0312C73.3203 13.9688 73.3385 13.8776 73.3438 13.7578V12.4141C73.3438 12.2943 73.3255 12.2031 73.2891 12.1406C73.2161 12 73.1042 11.8542 72.9531 11.7031C72.8073 11.5469 72.6693 11.4323 72.5391 11.3594C72.4974 11.3385 72.4557 11.3255 72.4141 11.3203C72.3724 11.3151 72.3229 11.3125 72.2656 11.3125H68.8906V14.8516ZM76.3203 20V10.3984H80.6406C80.8125 10.3984 80.9844 10.4271 81.1562 10.4844C81.3281 10.5365 81.4766 10.6094 81.6016 10.7031C81.6536 10.7448 81.7188 10.8047 81.7969 10.8828C81.8802 10.9557 81.9609 11.0365 82.0391 11.125C82.1224 11.2083 82.1953 11.2891 82.2578 11.3672C82.3203 11.4453 82.3698 11.5078 82.4062 11.5547C82.5677 11.7891 82.6458 12.0651 82.6406 12.3828V13.7891C82.6406 14.0964 82.5625 14.375 82.4062 14.625C82.375 14.6667 82.3255 14.7292 82.2578 14.8125C82.1953 14.8906 82.1224 14.9714 82.0391 15.0547C81.9609 15.1328 81.8802 15.2083 81.7969 15.2812C81.7188 15.3542 81.6536 15.4115 81.6016 15.4531C81.4818 15.5365 81.3438 15.6068 81.1875 15.6641C81.0365 15.7161 80.888 15.7474 80.7422 15.7578L83.0781 20H82.0156L79.7344 15.7578H77.2656V20H76.3203ZM77.2656 14.8516H80.625C80.7292 14.8516 80.8203 14.8281 80.8984 14.7812C81.0286 14.7083 81.1693 14.6016 81.3203 14.4609C81.4766 14.3151 81.5911 14.1719 81.6641 14.0312C81.6849 14 81.6953 13.9609 81.6953 13.9141C81.7005 13.8672 81.7031 13.8151 81.7031 13.7578V12.4141C81.7031 12.362 81.7031 12.3125 81.7031 12.2656C81.7031 12.2188 81.6901 12.1771 81.6641 12.1406C81.5911 12 81.4766 11.8542 81.3203 11.7031C81.1693 11.5469 81.0286 11.4323 80.8984 11.3594C80.8568 11.3385 80.8151 11.3255 80.7734 11.3203C80.7318 11.3151 80.6823 11.3125 80.625 11.3125H77.2656V14.8516ZM85.1328 20V10.3984H86.0781V20H85.1328ZM88.125 10.3828H89.1016L91.8672 19.0078H92.0938L94.8594 10.3828H95.8359L92.7031 20H91.2578L88.125 10.3828ZM96.3828 20L99.5938 10.3672H101.039L104.25 20H103.258L102.539 17.7734H98.0938L97.3594 20H96.3828ZM98.3828 16.8828H102.25L100.414 11.3125H100.203L98.3828 16.8828ZM104.5 11.2812V10.3984H110.898V11.2812H108.141V20H107.234V11.2812H104.5ZM112.633 20V10.3984H118.141V11.3125H113.562V14.75H118.141V15.6641H113.562V19.0859H118.141V20H112.633ZM124.914 20V10.3984H129.234C129.599 10.3984 129.914 10.5 130.18 10.7031C130.232 10.7448 130.297 10.8047 130.375 10.8828C130.458 10.9557 130.539 11.0365 130.617 11.125C130.701 11.2083 130.776 11.2891 130.844 11.3672C130.911 11.4453 130.964 11.5078 131 11.5547C131.161 11.7891 131.24 12.0651 131.234 12.3828V13.7891C131.234 14.0964 131.156 14.375 131 14.625C130.969 14.6667 130.917 14.7292 130.844 14.8125C130.776 14.8906 130.701 14.9714 130.617 15.0547C130.539 15.1328 130.458 15.2083 130.375 15.2812C130.297 15.3542 130.232 15.4115 130.18 15.4531C129.914 15.6562 129.599 15.7578 129.234 15.7578H125.844V20H124.914ZM125.844 14.8516H129.219C129.323 14.8516 129.414 14.8281 129.492 14.7812C129.622 14.7083 129.76 14.6016 129.906 14.4609C130.057 14.3151 130.169 14.1719 130.242 14.0312C130.273 13.9688 130.292 13.8776 130.297 13.7578V12.4141C130.297 12.2943 130.279 12.2031 130.242 12.1406C130.169 12 130.057 11.8542 129.906 11.7031C129.76 11.5469 129.622 11.4323 129.492 11.3594C129.451 11.3385 129.409 11.3255 129.367 11.3203C129.326 11.3151 129.276 11.3125 129.219 11.3125H125.844V14.8516ZM133.273 17.9375V12.5312C133.273 12.3906 133.286 12.2552 133.312 12.125C133.344 11.9896 133.396 11.862 133.469 11.7422C133.51 11.6797 133.578 11.5938 133.672 11.4844C133.771 11.3698 133.872 11.2578 133.977 11.1484C134.086 11.0339 134.193 10.9297 134.297 10.8359C134.406 10.737 134.497 10.6667 134.57 10.625C134.69 10.5521 134.823 10.4922 134.969 10.4453C135.12 10.3932 135.26 10.3672 135.391 10.3672H137.914C138.044 10.3672 138.185 10.3932 138.336 10.4453C138.492 10.4922 138.63 10.5521 138.75 10.625C138.823 10.6667 138.911 10.737 139.016 10.8359C139.125 10.9297 139.232 11.0339 139.336 11.1484C139.445 11.2578 139.544 11.3698 139.633 11.4844C139.727 11.5938 139.794 11.6797 139.836 11.7422C139.909 11.862 139.961 11.9896 139.992 12.125C140.029 12.2552 140.047 12.3906 140.047 12.5312V17.9375C140.047 18.0781 140.029 18.2161 139.992 18.3516C139.961 18.4818 139.909 18.6042 139.836 18.7188C139.794 18.7812 139.727 18.8672 139.633 18.9766C139.544 19.0807 139.445 19.1901 139.336 19.3047C139.232 19.4141 139.125 19.5182 139.016 19.6172C138.911 19.7109 138.823 19.7786 138.75 19.8203C138.63 19.8932 138.492 19.9531 138.336 20C138.185 20.0521 138.044 20.0781 137.914 20.0781H135.391C135.26 20.0781 135.12 20.0547 134.969 20.0078C134.823 19.9609 134.69 19.8984 134.57 19.8203C134.497 19.7786 134.406 19.7109 134.297 19.6172C134.193 19.5182 134.086 19.4141 133.977 19.3047C133.872 19.1901 133.771 19.0807 133.672 18.9766C133.578 18.8672 133.51 18.7812 133.469 18.7188C133.396 18.599 133.344 18.474 133.312 18.3438C133.286 18.2083 133.273 18.0729 133.273 17.9375ZM134.203 17.9219C134.203 17.974 134.224 18.0417 134.266 18.125C134.318 18.2188 134.385 18.3177 134.469 18.4219C134.557 18.526 134.648 18.625 134.742 18.7188C134.841 18.8073 134.935 18.888 135.023 18.9609C135.117 19.0339 135.195 19.0859 135.258 19.1172C135.31 19.1484 135.38 19.1667 135.469 19.1719H137.852C137.945 19.1719 138.016 19.1536 138.062 19.1172C138.125 19.0859 138.201 19.0339 138.289 18.9609C138.383 18.888 138.477 18.8073 138.57 18.7188C138.669 18.625 138.76 18.5286 138.844 18.4297C138.927 18.3255 138.997 18.224 139.055 18.125C139.086 18.0625 139.102 17.9948 139.102 17.9219V12.5625C139.102 12.4688 139.086 12.388 139.055 12.3203C139.003 12.2266 138.932 12.1302 138.844 12.0312C138.76 11.9271 138.669 11.8307 138.57 11.7422C138.477 11.6484 138.383 11.5651 138.289 11.4922C138.201 11.4141 138.125 11.3594 138.062 11.3281C138.021 11.2969 137.951 11.2812 137.852 11.2812H135.469C135.385 11.2812 135.315 11.2969 135.258 11.3281C135.195 11.3594 135.117 11.4141 135.023 11.4922C134.935 11.5651 134.841 11.6484 134.742 11.7422C134.648 11.8307 134.56 11.9271 134.477 12.0312C134.393 12.1302 134.323 12.2266 134.266 12.3203C134.224 12.4036 134.203 12.4844 134.203 12.5625V17.9219ZM142.367 20V10.3984H146.688C146.859 10.3984 147.031 10.4271 147.203 10.4844C147.375 10.5365 147.523 10.6094 147.648 10.7031C147.701 10.7448 147.766 10.8047 147.844 10.8828C147.927 10.9557 148.008 11.0365 148.086 11.125C148.169 11.2083 148.242 11.2891 148.305 11.3672C148.367 11.4453 148.417 11.5078 148.453 11.5547C148.615 11.7891 148.693 12.0651 148.688 12.3828V13.7891C148.688 14.0964 148.609 14.375 148.453 14.625C148.422 14.6667 148.372 14.7292 148.305 14.8125C148.242 14.8906 148.169 14.9714 148.086 15.0547C148.008 15.1328 147.927 15.2083 147.844 15.2812C147.766 15.3542 147.701 15.4115 147.648 15.4531C147.529 15.5365 147.391 15.6068 147.234 15.6641C147.083 15.7161 146.935 15.7474 146.789 15.7578L149.125 20H148.062L145.781 15.7578H143.312V20H142.367ZM143.312 14.8516H146.672C146.776 14.8516 146.867 14.8281 146.945 14.7812C147.076 14.7083 147.216 14.6016 147.367 14.4609C147.523 14.3151 147.638 14.1719 147.711 14.0312C147.732 14 147.742 13.9609 147.742 13.9141C147.747 13.8672 147.75 13.8151 147.75 13.7578V12.4141C147.75 12.362 147.75 12.3125 147.75 12.2656C147.75 12.2188 147.737 12.1771 147.711 12.1406C147.638 12 147.523 11.8542 147.367 11.7031C147.216 11.5469 147.076 11.4323 146.945 11.3594C146.904 11.3385 146.862 11.3255 146.82 11.3203C146.779 11.3151 146.729 11.3125 146.672 11.3125H143.312V14.8516ZM150.562 11.2812V10.3984H156.961V11.2812H154.203V20H153.297V11.2812H150.562ZM158.695 20V10.3984H164.203V11.3125H159.625V14.75H163.961V15.6641H159.625V20H158.695ZM166.398 17.9375V12.5312C166.398 12.3906 166.411 12.2552 166.438 12.125C166.469 11.9896 166.521 11.862 166.594 11.7422C166.635 11.6797 166.703 11.5938 166.797 11.4844C166.896 11.3698 166.997 11.2578 167.102 11.1484C167.211 11.0339 167.318 10.9297 167.422 10.8359C167.531 10.737 167.622 10.6667 167.695 10.625C167.815 10.5521 167.948 10.4922 168.094 10.4453C168.245 10.3932 168.385 10.3672 168.516 10.3672H171.039C171.169 10.3672 171.31 10.3932 171.461 10.4453C171.617 10.4922 171.755 10.5521 171.875 10.625C171.948 10.6667 172.036 10.737 172.141 10.8359C172.25 10.9297 172.357 11.0339 172.461 11.1484C172.57 11.2578 172.669 11.3698 172.758 11.4844C172.852 11.5938 172.919 11.6797 172.961 11.7422C173.034 11.862 173.086 11.9896 173.117 12.125C173.154 12.2552 173.172 12.3906 173.172 12.5312V17.9375C173.172 18.0781 173.154 18.2161 173.117 18.3516C173.086 18.4818 173.034 18.6042 172.961 18.7188C172.919 18.7812 172.852 18.8672 172.758 18.9766C172.669 19.0807 172.57 19.1901 172.461 19.3047C172.357 19.4141 172.25 19.5182 172.141 19.6172C172.036 19.7109 171.948 19.7786 171.875 19.8203C171.755 19.8932 171.617 19.9531 171.461 20C171.31 20.0521 171.169 20.0781 171.039 20.0781H168.516C168.385 20.0781 168.245 20.0547 168.094 20.0078C167.948 19.9609 167.815 19.8984 167.695 19.8203C167.622 19.7786 167.531 19.7109 167.422 19.6172C167.318 19.5182 167.211 19.4141 167.102 19.3047C166.997 19.1901 166.896 19.0807 166.797 18.9766C166.703 18.8672 166.635 18.7812 166.594 18.7188C166.521 18.599 166.469 18.474 166.438 18.3438C166.411 18.2083 166.398 18.0729 166.398 17.9375ZM167.328 17.9219C167.328 17.974 167.349 18.0417 167.391 18.125C167.443 18.2188 167.51 18.3177 167.594 18.4219C167.682 18.526 167.773 18.625 167.867 18.7188C167.966 18.8073 168.06 18.888 168.148 18.9609C168.242 19.0339 168.32 19.0859 168.383 19.1172C168.435 19.1484 168.505 19.1667 168.594 19.1719H170.977C171.07 19.1719 171.141 19.1536 171.188 19.1172C171.25 19.0859 171.326 19.0339 171.414 18.9609C171.508 18.888 171.602 18.8073 171.695 18.7188C171.794 18.625 171.885 18.5286 171.969 18.4297C172.052 18.3255 172.122 18.224 172.18 18.125C172.211 18.0625 172.227 17.9948 172.227 17.9219V12.5625C172.227 12.4688 172.211 12.388 172.18 12.3203C172.128 12.2266 172.057 12.1302 171.969 12.0312C171.885 11.9271 171.794 11.8307 171.695 11.7422C171.602 11.6484 171.508 11.5651 171.414 11.4922C171.326 11.4141 171.25 11.3594 171.188 11.3281C171.146 11.2969 171.076 11.2812 170.977 11.2812H168.594C168.51 11.2812 168.44 11.2969 168.383 11.3281C168.32 11.3594 168.242 11.4141 168.148 11.4922C168.06 11.5651 167.966 11.6484 167.867 11.7422C167.773 11.8307 167.685 11.9271 167.602 12.0312C167.518 12.1302 167.448 12.2266 167.391 12.3203C167.349 12.4036 167.328 12.4844 167.328 12.5625V17.9219ZM175.492 20V10.3984H176.422V19.0859H180.906V20H175.492ZM182.773 20V10.3984H183.719V20H182.773ZM186.227 17.9375V12.5312C186.227 12.3906 186.24 12.2552 186.266 12.125C186.297 11.9896 186.349 11.862 186.422 11.7422C186.464 11.6797 186.531 11.5938 186.625 11.4844C186.724 11.3698 186.826 11.2578 186.93 11.1484C187.039 11.0339 187.146 10.9297 187.25 10.8359C187.359 10.737 187.451 10.6667 187.523 10.625C187.643 10.5521 187.776 10.4922 187.922 10.4453C188.073 10.3932 188.214 10.3672 188.344 10.3672H190.867C190.997 10.3672 191.138 10.3932 191.289 10.4453C191.445 10.4922 191.583 10.5521 191.703 10.625C191.776 10.6667 191.865 10.737 191.969 10.8359C192.078 10.9297 192.185 11.0339 192.289 11.1484C192.398 11.2578 192.497 11.3698 192.586 11.4844C192.68 11.5938 192.747 11.6797 192.789 11.7422C192.862 11.862 192.914 11.9896 192.945 12.125C192.982 12.2552 193 12.3906 193 12.5312V17.9375C193 18.0781 192.982 18.2161 192.945 18.3516C192.914 18.4818 192.862 18.6042 192.789 18.7188C192.747 18.7812 192.68 18.8672 192.586 18.9766C192.497 19.0807 192.398 19.1901 192.289 19.3047C192.185 19.4141 192.078 19.5182 191.969 19.6172C191.865 19.7109 191.776 19.7786 191.703 19.8203C191.583 19.8932 191.445 19.9531 191.289 20C191.138 20.0521 190.997 20.0781 190.867 20.0781H188.344C188.214 20.0781 188.073 20.0547 187.922 20.0078C187.776 19.9609 187.643 19.8984 187.523 19.8203C187.451 19.7786 187.359 19.7109 187.25 19.6172C187.146 19.5182 187.039 19.4141 186.93 19.3047C186.826 19.1901 186.724 19.0807 186.625 18.9766C186.531 18.8672 186.464 18.7812 186.422 18.7188C186.349 18.599 186.297 18.474 186.266 18.3438C186.24 18.2083 186.227 18.0729 186.227 17.9375ZM187.156 17.9219C187.156 17.974 187.177 18.0417 187.219 18.125C187.271 18.2188 187.339 18.3177 187.422 18.4219C187.51 18.526 187.602 18.625 187.695 18.7188C187.794 18.8073 187.888 18.888 187.977 18.9609C188.07 19.0339 188.148 19.0859 188.211 19.1172C188.263 19.1484 188.333 19.1667 188.422 19.1719H190.805C190.898 19.1719 190.969 19.1536 191.016 19.1172C191.078 19.0859 191.154 19.0339 191.242 18.9609C191.336 18.888 191.43 18.8073 191.523 18.7188C191.622 18.625 191.714 18.5286 191.797 18.4297C191.88 18.3255 191.951 18.224 192.008 18.125C192.039 18.0625 192.055 17.9948 192.055 17.9219V12.5625C192.055 12.4688 192.039 12.388 192.008 12.3203C191.956 12.2266 191.885 12.1302 191.797 12.0312C191.714 11.9271 191.622 11.8307 191.523 11.7422C191.43 11.6484 191.336 11.5651 191.242 11.4922C191.154 11.4141 191.078 11.3594 191.016 11.3281C190.974 11.2969 190.904 11.2812 190.805 11.2812H188.422C188.339 11.2812 188.268 11.2969 188.211 11.3281C188.148 11.3594 188.07 11.4141 187.977 11.4922C187.888 11.5651 187.794 11.6484 187.695 11.7422C187.602 11.8307 187.513 11.9271 187.43 12.0312C187.346 12.1302 187.276 12.2266 187.219 12.3203C187.177 12.4036 187.156 12.4844 187.156 12.5625V17.9219Z" fill="white"/>
<path d="M216 15.5C216 15.359 215.943 15.2328 215.832 15.1293L210.792 10.1916C210.647 10.0453 210.521 10 210.383 10C210.1 10 209.886 10.2038 209.886 10.4812C209.886 10.6171 209.927 10.7433 210.02 10.8361L212.279 13.0645L214.858 15.4102L214.976 15.1099L212.752 15.0058H202.5C202.208 15.0058 202 15.2102 202 15.5C202 15.7875 202.208 15.9941 202.5 15.9941H212.752L214.976 15.8901L214.858 15.5949L212.279 17.9355L210.02 20.1638C209.932 20.2471 209.886 20.3829 209.886 20.5188C209.886 20.7939 210.1 21 210.383 21C210.521 21 210.64 20.9496 210.753 20.8438L215.832 15.8707C215.943 15.7649 216 15.641 216 15.5Z" fill="white"/>
</svg>
