<svg width="30" height="30" viewBox="0 0 30 30" fill="none" xmlns="http://www.w3.org/2000/svg">
<rect x="0.0224609" width="29.0225" height="29.0225" rx="4" fill="#F4F4E6"/>
<path fill-rule="evenodd" clip-rule="evenodd" d="M14.5329 6.37085C10.0382 6.37085 6.39307 9.94521 6.39307 14.3547C6.39307 17.8815 8.72537 20.874 11.9602 21.9302C12.3675 22.0033 12.5159 21.7567 12.5159 21.545C12.5159 21.3553 12.5088 20.8535 12.5046 20.1874C10.2402 20.6697 9.7625 19.117 9.7625 19.117C9.39219 18.1947 8.85846 17.9491 8.85846 17.9491C8.11934 17.4541 8.91442 17.4639 8.91442 17.4639C9.73149 17.5203 10.1613 18.2868 10.1613 18.2868C10.8874 19.5066 12.0668 19.1543 12.5306 18.9499C12.6045 18.4343 12.8149 18.0824 13.0473 17.8829C11.2397 17.681 9.3392 16.9963 9.3392 13.9371C9.3392 13.0652 9.65654 12.3531 10.1773 11.7949C10.0933 11.5929 9.81395 10.7813 10.2573 9.68199C10.2573 9.68199 10.9404 9.46734 12.4956 10.5C13.1448 10.3231 13.8415 10.2348 14.5336 10.2314C15.2252 10.2342 15.9214 10.3231 16.5715 10.5C18.1257 9.46734 18.8079 9.68199 18.8079 9.68199C19.2522 10.7813 18.9728 11.5929 18.8893 11.7949C19.4111 12.3531 19.7259 13.0652 19.7259 13.9371C19.7259 17.0042 17.8224 17.679 16.0093 17.8765C16.3012 18.1231 16.5615 18.6103 16.5615 19.3552C16.5615 20.4222 16.5516 21.2833 16.5516 21.545C16.5516 21.7587 16.6985 22.0072 17.1113 21.9292C20.3437 20.8711 22.674 17.881 22.674 14.3547C22.674 9.94521 19.0291 6.37085 14.5329 6.37085Z" fill="#4F97FE"/>
</svg>
