<svg width="42" height="42" viewBox="0 0 42 42" fill="none" xmlns="http://www.w3.org/2000/svg">
<g filter="url(#filter0_d_384_453938)">
<rect x="6.02246" y="3" width="29.0225" height="29.0225" rx="4" fill="#F4F4E6"/>
<path fill-rule="evenodd" clip-rule="evenodd" d="M20.5329 9.37085C16.0382 9.37085 12.3931 12.9452 12.3931 17.3547C12.3931 20.8815 14.7254 23.874 17.9602 24.9302C18.3675 25.0033 18.5159 24.7567 18.5159 24.545C18.5159 24.3553 18.5088 23.8535 18.5046 23.1874C16.2402 23.6697 15.7625 22.117 15.7625 22.117C15.3922 21.1947 14.8585 20.9491 14.8585 20.9491C14.1193 20.4541 14.9144 20.4639 14.9144 20.4639C15.7315 20.5203 16.1613 21.2868 16.1613 21.2868C16.8874 22.5066 18.0668 22.1543 18.5306 21.9499C18.6045 21.4343 18.8149 21.0824 19.0473 20.8829C17.2397 20.681 15.3392 19.9963 15.3392 16.9371C15.3392 16.0652 15.6565 15.3531 16.1773 14.7949C16.0933 14.5929 15.814 13.7813 16.2573 12.682C16.2573 12.682 16.9404 12.4673 18.4956 13.5C19.1448 13.3231 19.8415 13.2348 20.5336 13.2314C21.2252 13.2342 21.9214 13.3231 22.5715 13.5C24.1257 12.4673 24.8079 12.682 24.8079 12.682C25.2522 13.7813 24.9728 14.5929 24.8893 14.7949C25.4111 15.3531 25.7259 16.0652 25.7259 16.9371C25.7259 20.0042 23.8224 20.679 22.0093 20.8765C22.3012 21.1231 22.5615 21.6103 22.5615 22.3552C22.5615 23.4222 22.5516 24.2833 22.5516 24.545C22.5516 24.7587 22.6985 25.0072 23.1113 24.9292C26.3437 23.8711 28.674 20.881 28.674 17.3547C28.674 12.9452 25.0291 9.37085 20.5329 9.37085Z" fill="#4F97FE"/>
</g>
<defs>
<filter id="filter0_d_384_453938" x="0.0224609" y="0" width="41.0225" height="41.0225" filterUnits="userSpaceOnUse" color-interpolation-filters="sRGB">
<feFlood flood-opacity="0" result="BackgroundImageFix"/>
<feColorMatrix in="SourceAlpha" type="matrix" values="0 0 0 0 0 0 0 0 0 0 0 0 0 0 0 0 0 0 127 0" result="hardAlpha"/>
<feOffset dy="3"/>
<feGaussianBlur stdDeviation="3"/>
<feComposite in2="hardAlpha" operator="out"/>
<feColorMatrix type="matrix" values="0 0 0 0 0.309804 0 0 0 0 0.592157 0 0 0 0 0.996078 0 0 0 0.35 0"/>
<feBlend mode="normal" in2="BackgroundImageFix" result="effect1_dropShadow_384_453938"/>
<feBlend mode="normal" in="SourceGraphic" in2="effect1_dropShadow_384_453938" result="shape"/>
</filter>
</defs>
</svg>
