<svg width="639" height="238" viewBox="0 0 639 238" fill="none" xmlns="http://www.w3.org/2000/svg">
<g filter="url(#filter0_d_211_694824)">
<path d="M102.589 67.748C112.921 67.748 122.105 70.044 130.141 74.636C138.177 79.064 144.409 85.706 148.837 94.562C153.429 103.254 155.725 113.75 155.725 126.05V206H121.285V130.724C121.285 119.9 118.579 111.618 113.167 105.878C107.755 99.974 100.375 97.022 91.0274 97.022C81.5154 97.022 73.9714 99.974 68.3954 105.878C62.9834 111.618 60.2774 119.9 60.2774 130.724V206H25.8374V23.96H60.2774V86.69C64.7054 80.786 70.6094 76.194 77.9894 72.914C85.3694 69.47 93.5694 67.748 102.589 67.748Z" fill="black"/>
<path d="M374.744 23.96V206H340.304V23.96H374.744Z" fill="black"/>
<path d="M443.211 23.96V206H408.771V23.96H443.211Z" fill="black"/>
<path fill-rule="evenodd" clip-rule="evenodd" d="M538.061 210.484C579.493 210.484 613.081 176.896 613.081 135.464C613.081 94.031 579.493 60.4434 538.061 60.4434C496.628 60.4434 463.041 94.031 463.041 135.464C463.041 176.896 496.628 210.484 538.061 210.484ZM538.061 180.968C563.192 180.968 583.565 160.595 583.565 135.464C583.565 110.332 563.192 89.9595 538.061 89.9595C512.929 89.9595 492.557 110.332 492.557 135.464C492.557 160.595 512.929 180.968 538.061 180.968Z" fill="black"/>
<path fill-rule="evenodd" clip-rule="evenodd" d="M250.278 210.444C249.461 210.47 248.641 210.484 247.819 210.484C206.386 210.484 172.798 176.896 172.798 135.464C172.798 94.031 206.386 60.4434 247.819 60.4434C287.95 60.4434 320.721 91.9544 322.74 131.584L293.159 131.584C291.191 108.269 271.643 89.9595 247.818 89.9595C222.687 89.9595 202.314 110.332 202.314 135.464C202.314 160.595 222.687 180.968 247.818 180.968C248.644 180.968 249.464 180.946 250.278 180.902V210.444Z" fill="black"/>
<path d="M201.084 130.544H322.839V155.141H201.084V130.544Z" fill="black"/>
</g>
<defs>
<filter id="filter0_d_211_694824" x="0.837402" y="0.959961" width="637.244" height="236.524" filterUnits="userSpaceOnUse" color-interpolation-filters="sRGB">
<feFlood flood-opacity="0" result="BackgroundImageFix"/>
<feColorMatrix in="SourceAlpha" type="matrix" values="0 0 0 0 0 0 0 0 0 0 0 0 0 0 0 0 0 0 127 0" result="hardAlpha"/>
<feOffset dy="2"/>
<feGaussianBlur stdDeviation="12.5"/>
<feComposite in2="hardAlpha" operator="out"/>
<feColorMatrix type="matrix" values="0 0 0 0 0 0 0 0 0 0 0 0 0 0 0 0 0 0 0.3 0"/>
<feBlend mode="hard-light" in2="BackgroundImageFix" result="effect1_dropShadow_211_694824"/>
<feBlend mode="normal" in="SourceGraphic" in2="effect1_dropShadow_211_694824" result="shape"/>
</filter>
</defs>
</svg>
