<svg width="30" height="30" viewBox="0 0 30 30" fill="none" xmlns="http://www.w3.org/2000/svg">
<rect width="29.0225" height="29.0225" rx="4" fill="#F4F4E6"/>
<path d="M6.37061 8.80538C6.37061 8.30485 6.55395 7.89193 6.92064 7.56661C7.28732 7.24127 7.76402 7.07861 8.35071 7.07861C8.92694 7.07861 9.39315 7.23877 9.74936 7.5591C10.116 7.88944 10.2994 8.31987 10.2994 8.85042C10.2994 9.33091 10.1213 9.73131 9.76508 10.0516C9.3984 10.382 8.91646 10.5472 8.31928 10.5472H8.30357C7.72734 10.5472 7.26114 10.382 6.90492 10.0516C6.54871 9.72131 6.37061 9.30588 6.37061 8.80538ZM6.5749 21.9438V11.9135H10.0637V21.9438H6.5749ZM11.9966 21.9438H15.4854V16.3431C15.4854 15.9927 15.5273 15.7224 15.6111 15.5322C15.7578 15.1919 15.9804 14.9041 16.279 14.6689C16.5776 14.4336 16.9521 14.316 17.4026 14.316C18.576 14.316 19.1627 15.0718 19.1627 16.5833V21.9438H22.6515V16.1929C22.6515 14.7114 22.2848 13.5878 21.5514 12.822C20.8181 12.0562 19.849 11.6733 18.6441 11.6733C17.2926 11.6733 16.2397 12.2289 15.4854 13.34V13.37H15.4697L15.4854 13.34V11.9135H11.9966C12.0176 12.2339 12.0281 13.2299 12.0281 14.9016C12.0281 16.5733 12.0176 18.9207 11.9966 21.9438Z" fill="#4F97FE"/>
</svg>
