<svg width="51" height="67" viewBox="0 0 51 67" fill="none" xmlns="http://www.w3.org/2000/svg">
<path d="M44.3333 22.1667H41.1667V15.8333C41.1667 7.09333 34.0733 0 25.3333 0C16.5933 0 9.5 7.09333 9.5 15.8333V22.1667H6.33333C2.85 22.1667 0 25.0167 0 28.5V60.1667C0 63.65 2.85 66.5 6.33333 66.5H44.3333C47.8167 66.5 50.6667 63.65 50.6667 60.1667V28.5C50.6667 25.0167 47.8167 22.1667 44.3333 22.1667ZM25.3333 50.6667C21.85 50.6667 19 47.8167 19 44.3333C19 40.85 21.85 38 25.3333 38C28.8167 38 31.6667 40.85 31.6667 44.3333C31.6667 47.8167 28.8167 50.6667 25.3333 50.6667ZM35.15 22.1667H15.5167V15.8333C15.5167 10.4183 19.9183 6.01667 25.3333 6.01667C30.7483 6.01667 35.15 10.4183 35.15 15.8333V22.1667Z" fill="#4B4B4B"/>
</svg>
