<svg width="92" height="29" viewBox="0 0 92 29" fill="none" xmlns="http://www.w3.org/2000/svg">
<rect x="0.0449219" width="91" height="29" rx="4" fill="#4F97FE"/>
<path d="M73.8336 13.3673L73.3261 13.9285C74.0548 13.9326 74.5315 14.1542 74.9022 14.5612C75.7742 15.5186 75.7664 16.8925 74.8951 17.8475L73.319 19.5725C72.4428 20.5311 71.201 20.5413 70.3305 19.5909C69.4585 18.6299 69.4648 17.2649 70.341 16.303L71.4731 15.0618C71.3723 14.8182 71.3445 14.5027 71.4021 14.2157L69.8806 15.8824C68.7729 17.1022 68.7587 18.839 69.8839 20.0743C71.014 21.3165 72.5974 21.2977 73.7021 20.0832L75.3521 18.2697C76.4632 17.05 76.4773 15.3132 75.3488 14.0779C74.9892 13.6814 74.5445 13.4297 73.8336 13.3673ZM74.2563 17.6322L74.7638 17.071C74.035 17.0706 73.5584 16.8454 73.1876 16.4383C72.3156 15.481 72.3234 14.1071 73.1948 13.1521L74.7675 11.4271C75.647 10.4685 76.8888 10.4582 77.7593 11.4139C78.6313 12.3696 78.6202 13.7383 77.7488 14.6965L76.6167 15.9378C76.7175 16.185 76.742 16.4968 76.6877 16.7839L78.2092 15.1171C79.3169 13.8974 79.3311 12.1643 78.2059 10.9253C77.0759 9.68305 75.4924 9.70187 74.3844 10.92L72.7377 12.7298C71.6266 13.9496 71.6125 15.6864 72.741 16.9233C73.1006 17.3181 73.5438 17.5698 74.2563 17.6322Z" fill="white"/>
<path d="M12.6699 20V10.3984H16.9902C17.1621 10.3984 17.334 10.4271 17.5059 10.4844C17.6777 10.5365 17.8262 10.6094 17.9512 10.7031C18.0033 10.7448 18.0684 10.8047 18.1465 10.8828C18.2298 10.9557 18.3105 11.0365 18.3887 11.125C18.472 11.2083 18.5449 11.2891 18.6074 11.3672C18.6699 11.4453 18.7194 11.5078 18.7559 11.5547C18.9173 11.7891 18.9954 12.0651 18.9902 12.3828V13.7891C18.9902 14.0964 18.9121 14.375 18.7559 14.625C18.7246 14.6667 18.6751 14.7292 18.6074 14.8125C18.5449 14.8906 18.472 14.9714 18.3887 15.0547C18.3105 15.1328 18.2298 15.2083 18.1465 15.2812C18.0684 15.3542 18.0033 15.4115 17.9512 15.4531C17.8314 15.5365 17.6934 15.6068 17.5371 15.6641C17.3861 15.7161 17.2376 15.7474 17.0918 15.7578L19.4277 20H18.3652L16.084 15.7578H13.6152V20H12.6699ZM13.6152 14.8516H16.9746C17.0788 14.8516 17.1699 14.8281 17.248 14.7812C17.3783 14.7083 17.5189 14.6016 17.6699 14.4609C17.8262 14.3151 17.9408 14.1719 18.0137 14.0312C18.0345 14 18.0449 13.9609 18.0449 13.9141C18.0501 13.8672 18.0527 13.8151 18.0527 13.7578V12.4141C18.0527 12.362 18.0527 12.3125 18.0527 12.2656C18.0527 12.2188 18.0397 12.1771 18.0137 12.1406C17.9408 12 17.8262 11.8542 17.6699 11.7031C17.5189 11.5469 17.3783 11.4323 17.248 11.3594C17.2064 11.3385 17.1647 11.3255 17.123 11.3203C17.0814 11.3151 17.0319 11.3125 16.9746 11.3125H13.6152V14.8516ZM21.4824 20V10.3984H26.9902V11.3125H22.4121V14.75H26.9902V15.6641H22.4121V19.0859H26.9902V20H21.4824ZM29.1465 18.2109L30.0449 17.9531C30.0762 18.0156 30.1022 18.0625 30.123 18.0938C30.1335 18.1146 30.1465 18.1302 30.1621 18.1406C30.2819 18.3333 30.4382 18.5286 30.6309 18.7266C30.8288 18.9245 30.9954 19.0599 31.1309 19.1328C31.1829 19.1641 31.2585 19.1823 31.3574 19.1875H33.9043C33.9876 19.1875 34.0501 19.1693 34.0918 19.1328C34.1543 19.1016 34.2298 19.0495 34.3184 18.9766C34.4121 18.9036 34.5059 18.8229 34.5996 18.7344C34.6986 18.6406 34.7897 18.5443 34.873 18.4453C34.9616 18.3411 35.0319 18.2396 35.084 18.1406C35.1152 18.0781 35.1309 18.0104 35.1309 17.9375V16.9609C35.1309 16.7995 35.0866 16.6458 34.998 16.5C34.9095 16.349 34.7897 16.2526 34.6387 16.2109L30.2246 15.0078C29.9173 14.9245 29.6751 14.7396 29.498 14.4531C29.321 14.1615 29.2324 13.8464 29.2324 13.5078V12.5625C29.2324 12.4219 29.2454 12.2865 29.2715 12.1562C29.2975 12.0208 29.347 11.8932 29.4199 11.7734C29.4616 11.7109 29.5293 11.625 29.623 11.5156C29.722 11.401 29.8236 11.2891 29.9277 11.1797C30.0371 11.0651 30.1439 10.9609 30.248 10.8672C30.3574 10.7682 30.4512 10.6979 30.5293 10.6562C30.6491 10.5833 30.7819 10.5234 30.9277 10.4766C31.0736 10.4245 31.2116 10.3984 31.3418 10.3984H33.7559C33.8861 10.3984 34.0241 10.4245 34.1699 10.4766C34.321 10.5234 34.4564 10.5833 34.5762 10.6562C34.748 10.7604 34.9251 10.9167 35.1074 11.125C35.2949 11.3333 35.4486 11.513 35.5684 11.6641C35.6204 11.7474 35.6777 11.8438 35.7402 11.9531C35.8079 12.0573 35.8678 12.1693 35.9199 12.2891L35.0059 12.5625C34.985 12.5 34.959 12.4453 34.9277 12.3984C34.9173 12.3776 34.9069 12.362 34.8965 12.3516C34.7923 12.1589 34.6361 11.9635 34.4277 11.7656C34.2246 11.5677 34.0553 11.4323 33.9199 11.3594C33.8783 11.3281 33.8079 11.3125 33.709 11.3125H31.4199C31.3366 11.3125 31.2689 11.3281 31.2168 11.3594C31.1543 11.3906 31.0762 11.4453 30.9824 11.5234C30.8939 11.5964 30.8001 11.6797 30.7012 11.7734C30.6074 11.862 30.5163 11.9583 30.4277 12.0625C30.3444 12.1615 30.2767 12.2578 30.2246 12.3516C30.1829 12.4349 30.1621 12.5052 30.1621 12.5625V13.4375C30.1621 13.599 30.2064 13.75 30.2949 13.8906C30.3835 14.026 30.5033 14.1146 30.6543 14.1562L35.0527 15.375C35.36 15.4583 35.6074 15.6432 35.7949 15.9297C35.9824 16.2109 36.0762 16.5234 36.0762 16.8672V17.9531C36.0762 18.0938 36.0632 18.2318 36.0371 18.3672C36.0111 18.4974 35.9616 18.6198 35.8887 18.7344C35.847 18.7969 35.7767 18.8828 35.6777 18.9922C35.584 19.0964 35.4824 19.2057 35.373 19.3203C35.2689 19.4297 35.1621 19.5339 35.0527 19.6328C34.9486 19.7266 34.8574 19.7969 34.7793 19.8438C34.6595 19.9167 34.5267 19.9766 34.3809 20.0234C34.235 20.0703 34.097 20.0938 33.9668 20.0938H31.3105C31.1803 20.0938 31.0371 20.0703 30.8809 20.0234C30.7298 19.9766 30.5944 19.9167 30.4746 19.8438C30.3027 19.7396 30.123 19.5833 29.9355 19.375C29.7533 19.1615 29.6022 18.9792 29.4824 18.8281C29.3626 18.6562 29.2507 18.4505 29.1465 18.2109ZM38.2168 17.9375V10.3984H39.1621V17.9062C39.1621 17.9583 39.1829 18.026 39.2246 18.1094C39.2767 18.2031 39.3444 18.3021 39.4277 18.4062C39.5163 18.5104 39.6074 18.6068 39.7012 18.6953C39.8001 18.7839 39.8939 18.8672 39.9824 18.9453C40.0762 19.0182 40.1543 19.0703 40.2168 19.1016C40.2689 19.1328 40.3392 19.1484 40.4277 19.1484H42.4121C42.5059 19.1484 42.5762 19.1328 42.623 19.1016C42.6855 19.0703 42.7611 19.0182 42.8496 18.9453C42.9434 18.8672 43.0345 18.7839 43.123 18.6953C43.2168 18.6068 43.3053 18.513 43.3887 18.4141C43.472 18.3099 43.5423 18.2083 43.5996 18.1094C43.6413 18.026 43.6621 17.9583 43.6621 17.9062V10.3984H44.584V17.9375C44.584 18.0781 44.571 18.2135 44.5449 18.3438C44.5189 18.4688 44.4694 18.5885 44.3965 18.7031C44.3548 18.7656 44.2871 18.8516 44.1934 18.9609C44.1048 19.0651 44.0059 19.1745 43.8965 19.2891C43.7923 19.3984 43.6855 19.5026 43.5762 19.6016C43.472 19.6953 43.3835 19.763 43.3105 19.8047C43.1908 19.8776 43.0553 19.9401 42.9043 19.9922C42.7585 20.0391 42.6204 20.0625 42.4902 20.0625H40.3496C40.2194 20.0625 40.0762 20.0391 39.9199 19.9922C39.7689 19.9453 39.6335 19.8828 39.5137 19.8047C39.4408 19.763 39.3496 19.6953 39.2402 19.6016C39.1361 19.5026 39.0293 19.3984 38.9199 19.2891C38.8158 19.1745 38.7168 19.0651 38.623 18.9609C38.5345 18.8516 38.4694 18.7656 38.4277 18.7031C38.2871 18.4896 38.2168 18.2344 38.2168 17.9375ZM46.9668 20V10.3984H48.3105L50.9199 16.0156L53.5449 10.3984H54.8574V20H53.959V11.3906L51.209 17.4219H50.5996L47.8809 11.3906V20H46.9668ZM57.373 20V10.3984H62.8809V11.3125H58.3027V14.75H62.8809V15.6641H58.3027V19.0859H62.8809V20H57.373Z" fill="white"/>
</svg>
