<svg width="40" height="57" viewBox="0 0 40 57" fill="none" xmlns="http://www.w3.org/2000/svg">
<path d="M6.21944 56.8629H33.5528C37.4871 56.8629 39.7723 54.501 39.7723 50.2898V29.3596C39.7723 25.1484 37.4871 22.8067 33.5528 22.8067H6.21944C2.28516 22.8067 0 25.1484 0 29.3596V50.2898C0 54.501 2.28516 56.8629 6.21944 56.8629ZM5.23594 24.5268H8.84971V15.5871C8.84971 7.94092 13.6755 3.43389 19.8715 3.43389C26.0584 3.43389 30.9428 7.94092 30.9428 15.5871V24.5268H34.5272V15.9773C34.5272 5.66103 27.8288 0 19.8715 0C11.9435 0 5.23594 5.66103 5.23594 15.9773V24.5268Z" fill="black" fill-opacity="0.85"/>
</svg>
